<?xml version="1.0" encoding="UTF-8" standalone="no"?>
<!-- Generator: Adobe Illustrator 16.0.0, SVG Export Plug-In . SVG Version: 6.00 Build 0)  -->
<!DOCTYPE svg  PUBLIC '-//W3C//DTD SVG 1.1//EN'  'http://www.w3.org/Graphics/SVG/1.1/DTD/svg11.dtd'>
<svg id="Capa_1" style="enable-background:new 0 0 378.94 378.94" xmlns="http://www.w3.org/2000/svg" xml:space="preserve" height="378.94px" viewBox="0 0 378.94 378.94" width="378.94px" version="1.1" y="0px" x="0px" xmlns:xlink="http://www.w3.org/1999/xlink">
	<path d="m348.15 54.514c-19.883-19.884-46.315-30.826-74.435-30.826-28.124 0-54.559 10.942-74.449 30.826l-9.798 9.8-9.798-9.8c-19.884-19.884-46.325-30.826-74.443-30.826-28.117 0-54.56 10.942-74.442 30.826-41.049 41.053-41.049 107.85 0 148.88l147.09 147.09c2.405 2.414 5.399 3.892 8.527 4.461 1.049 0.207 2.104 0.303 3.161 0.303 4.161 0 8.329-1.587 11.498-4.764l147.09-147.09c41.04-41.03 41.04-107.82-0.01-148.88zm-22.99 125.89l-135.69 135.69-135.69-135.69c-28.368-28.364-28.368-74.514 0-102.89 13.741-13.739 32.017-21.296 51.446-21.296 19.431 0 37.702 7.557 51.438 21.296l21.305 21.312c6.107 6.098 16.897 6.098 23.003 0l21.297-21.312c13.737-13.739 32.009-21.296 51.446-21.296 19.431 0 37.701 7.557 51.438 21.296 28.36 28.38 28.36 74.53-0.01 102.89z"/>
</svg>
