<?xml version="1.0" encoding="UTF-8" standalone="no"?>
<!-- Generator: Adobe Illustrator 16.0.0, SVG Export Plug-In . SVG Version: 6.00 Build 0)  -->
<!DOCTYPE svg  PUBLIC '-//W3C//DTD SVG 1.1//EN'  'http://www.w3.org/Graphics/SVG/1.1/DTD/svg11.dtd'>
<svg id="Capa_1" style="enable-background:new 0 0 469.404 469.404" xmlns="http://www.w3.org/2000/svg" xml:space="preserve" height="469.4px" viewBox="0 0 469.404 469.404" width="469.4px" version="1.1" y="0px" x="0px" xmlns:xlink="http://www.w3.org/1999/xlink">
	<path d="m310.4 235.08l149.48-149.55c12.545-12.546 12.545-32.972 0-45.671l-30.45-30.45c-12.547-12.546-32.971-12.546-45.67 0l-149.48 149.56-148.64-148.64c-12.546-12.546-32.972-12.546-45.67 0l-30.446 30.444c-12.546 12.546-12.546 32.972 0 45.671l148.64 148.64-148.48 148.42c-12.546 12.546-12.546 32.971 0 45.67l30.447 30.447c12.546 12.546 32.972 12.546 45.67 0l148.49-148.41 148.79 148.79c12.547 12.546 32.973 12.546 45.67 0l30.447-30.447c12.547-12.546 12.547-32.972 0-45.671l-148.8-148.8z"/>
</svg>
