<svg xmlns="http://www.w3.org/2000/svg" width="25px" height="25px" viewBox="0 0 55 55"><path d="M51.376 45.29c-4.66-4.63-7.022-10.11-7.022-16.29v-8.994c.043-6.857-4.568-11.405-8.53-13.216-1.135-.52-2.305-.92-3.494-1.216V5c0-2.757-2.243-5-5-5s-5 2.243-5 5v.66c-1.07.29-2.124.667-3.146 1.14-4.38 2.017-8.815 6.88-8.855 13.2v9c0 6.388-2.26 11.87-6.71 16.29-.27.265-.36.654-.25 1.01s.41.622.78.686l9.49 1.64c1.77.304 3.39.554 4.94.76C20.34 52.806 23.77 55 27.51 55c3.745 0 7.173-2.196 8.917-5.618 1.54-.205 3.16-.454 4.92-.758l9.49-1.64c.37-.062.67-.327.78-.684.11-.356.01-.745-.25-1.01zM24.33 5c0-1.654 1.345-3 3-3s3 1.346 3 3v.182c-1.994-.286-4.016-.274-6 .047V5zm3.182 48c-2.532 0-4.898-1.258-6.417-3.315 2.235.23 4.32.346 6.406.346 2.1 0 4.19-.11 6.43-.34-1.52 2.06-3.88 3.31-6.41 3.31zm13.498-6.347c-1.92.33-3.678.6-5.34.812h-.006c-.732.093-1.444.174-2.14.244H33.5c-.636.06-1.26.11-1.875.16-.117.01-.233.01-.35.02-.534.03-1.062.06-1.587.08l-.324.01c-1.244.04-2.47.04-3.714 0l-.332-.02c-.518-.02-1.04-.05-1.567-.08l-.37-.028c-.6-.04-1.2-.09-1.83-.153l-.06-.006c-.69-.07-1.4-.15-2.12-.24h-.01c-1.66-.21-3.43-.483-5.36-.815l-7.67-1.32c3.99-4.555 6-10.04 6-16.33V20c.04-5.434 3.89-9.636 7.69-11.39 1.13-.52 2.31-.91 3.5-1.183.01 0 .02 0 .03-.002 2.47-.56 5.09-.58 7.58-.07.02 0 .03-.01.04 0 1.31.27 2.59.68 3.83 1.25 3.69 1.68 7.4 5.86 7.36 11.39v9c0 6.03 2.18 11.64 6.317 16.33l-7.656 1.32z"/><path d="M33.746 11.338c-3.875-1.77-8.62-1.773-12.47.002-2.194 1.012-5.917 3.973-5.947 8.654-.01.552.44 1.002.99 1.006.55 0 .99-.443 1-.994.02-3.677 3.02-6.035 4.78-6.85 3.33-1.537 7.44-1.533 10.8 0 .5.23 1.09.01 1.32-.493.23-.503.01-1.096-.496-1.325z"/></svg>
