<svg xmlns="http://www.w3.org/2000/svg" width="15" height="15" viewBox="0 0 64 64"><g fill="#fe427c"><path d="M62.463 1.543C61.446.526 60.06 0 58.633 0c-1.43.02-2.778.59-3.8 1.61L52.385 4.05c-.01.012-.015.025-.024.035l-31.91 31.82c-.103.103-.157.232-.233.352-.132.15-.246.316-.328.504l-3.254 7.5c-.324.75-.17 1.62.397 2.21.392.41.927.632 1.476.632.242 0 .487-.043.72-.13l7.824-2.944c.217-.08.406-.21.58-.352.125-.08.26-.14.366-.245L60.035 11.49c.006-.006.008-.014.015-.02l2.34-2.33c2.12-2.11 2.15-5.52.073-7.597zM26.558 39.12l-1.777-1.774 29.152-29.07 1.776 1.774-29.15 29.07zM59.508 6.26l-.916.912-1.784-1.78.91-.91c.266-.263.61-.41.973-.415.345-.01.654.118.884.347.49.49.46 1.32-.066 1.845z"/><path d="M58.454 22.253c-1.128 0-2.04.91-2.04 2.034v33.61c0 1.122-.915 2.034-2.04 2.034H6.12c-1.126 0-2.04-.91-2.04-2.032V9.788c0-1.122.914-2.035 2.04-2.035h33.403c1.127 0 2.04-.91 2.04-2.034s-.913-2.035-2.04-2.035H6.12C2.745 3.685 0 6.422 0 9.787v48.11C0 61.264 2.745 64 6.12 64h48.254c3.374 0 6.12-2.737 6.12-6.102v-33.61c0-1.124-.913-2.035-2.04-2.035z"/></g></svg>
