<?xml version="1.0" encoding="UTF-8" standalone="no"?>
<!-- Generator: Adobe Illustrator 18.0.0, SVG Export Plug-In . SVG Version: 6.00 Build 0)  -->
<!DOCTYPE svg  PUBLIC '-//W3C//DTD SVG 1.1//EN'  'http://www.w3.org/Graphics/SVG/1.1/DTD/svg11.dtd'>
<svg id="Capa_1" style="enable-background:new 0 0 444.888 444.888" xmlns="http://www.w3.org/2000/svg" xml:space="preserve" viewBox="0 0 444.888 444.888" version="1.1" y="0px" x="0px" xmlns:xlink="http://www.w3.org/1999/xlink">
			<path d="m206.2 291.53h-21.876c-1.407 0-2.75-0.593-3.697-1.634s-1.412-2.433-1.281-3.834c0.855-9.093 17.566-33.064 29.127-33.064 0.297 0 0.588 0.014 0.875 0.04 5.138 0.482 9.78 2.938 13.072 6.912 3.292 3.975 4.839 8.992 4.356 14.13-0.95 10.1-9.6 17.44-20.57 17.44zm-14.8-10h14.803c4.735 0 10.078-2.624 10.619-8.386 0.233-2.478-0.513-4.898-2.101-6.815-1.588-1.918-3.827-3.102-6.307-3.334-3.54 0.2-12.82 10.87-17.01 18.54z"/>
		<path d="m227.14 0c-109.92 0-199.34 89.423-199.34 199.34 0 36.685 9.991 72.331 28.929 103.46-6.85 3.864-12.098 7.956-17.26 11.987-5.643 4.405-10.972 8.566-18.413 12.547-1.336 0.715-2.275 1.997-2.556 3.485-0.279 1.489 0.131 3.024 1.116 4.176 11.673 13.634 27.61 20.547 47.369 20.547 8.054 0 16.669-1.084 26.38-3.353-8.978 8.926-18.644 17.531-25.404 22.439-1.864 1.353-2.563 3.805-1.691 5.936 0.871 2.133 3.091 3.395 5.364 3.055 6.389-0.949 13.443-1.512 20.082-1.607-10.362 16.955-22.004 42.386-27.098 56.142-0.568 1.534-0.35 3.25 0.585 4.593s2.467 2.143 4.104 2.143h177.44c2.705 0 4.92-2.151 4.998-4.855 0.691-23.884 5.278-35.994 13.635-35.994 2.469 0 4.568-1.802 4.942-4.242 0.314-2.05 0.625-4.054 0.936-6.025 42.857-9.699 81.768-33.694 109.87-67.85 29.239-35.531 45.342-80.485 45.342-126.58 0.01-109.93-89.42-199.35-199.33-199.35zm33.88 394.52c-15.795 3.67-18.468 27.412-19.094 40.368h-165.3c6.891-16.792 19.176-42.086 28.277-54.775 1.06-1.479 1.233-3.419 0.451-5.063-0.783-1.644-2.397-2.732-4.215-2.842-4.384-0.264-9.359-0.277-14.403-0.053 8.958-7.943 18.866-17.762 26.52-26.447 1.491-1.692 1.665-4.174 0.424-6.057-1.24-1.884-3.592-2.703-5.732-2-16.414 5.383-29.434 7.89-40.974 7.89-14.616 0-26.307-4.151-35.549-12.661 5.435-3.379 9.866-6.839 14.185-10.211 10.998-8.587 21.386-16.697 47.736-22.579 11.708-2.614 12.996-3.547 19.553-10.065 0.794-0.79 1.689-1.68 2.724-2.688 26.741-26.037 65.141-36.451 83.595-41.456 4.737-1.284 7.868-2.133 9.743-2.955 7.096-3.111 14.691-9.56 22.036-15.795 3.028-2.57 5.888-4.998 8.475-6.977 4.068-3.111 8.296-6.433 12.385-9.645 7.223-5.676 14.831-11.652 21.989-16.779 2.417 1.327 6.161 4.507 5.841 11.412-0.114 2.444 1.558 4.611 3.95 5.122 0.292 0.063 3.656 0.757 8.193 0.757 5.245 0 12.058-0.929 17.5-4.837 0.887-0.637 1.707-1.329 2.462-2.075 1.395 7.437 1.785 14.319 1.085 17.139-1.45 5.839-5.508 11.891-9.803 18.297-7.512 11.203-16.024 23.9-11.17 38.434 0.569 1.705 2.011 2.974 3.774 3.321 1.766 0.35 3.578-0.277 4.753-1.639 5.494-6.365 11.834-10.642 15.777-10.642 0.994 0 2.145 0.232 3.35 1.743-1.732 5.261-13.374 23.082-23.688 35.201-23.41 27.51-29.17 52.17-34.85 88.55zm21.57-206.72c7.11-4.507 13.3-7.478 17.532-7.478 0.481 0 0.914 0.046 1.288 0.135 0.263 0.063 1.678 0.546 3.743 3.939 1.045 1.717 1.99 3.727 2.839 5.904-0.6 3.46-2.06 6.008-4.466 7.745-3.922 2.833-9.865 3.185-14.031 2.912-0.78-5.97-3.65-10.26-6.9-13.15zm-9.56 195.27c4.854-27.593 11.194-47.99 30.461-70.627 5.403-6.349 12.249-15.622 17.439-23.624 9.255-14.268 9.933-18.783 7.944-22.124-3.776-6.346-8.97-7.678-12.66-7.678-5.55 0-10.954 2.989-15.303 6.384 1.344-6.672 5.82-13.35 10.474-20.289 4.587-6.841 9.329-13.915 11.202-21.456 2.251-9.061-1.733-32.701-8.893-44.463-2.879-4.73-6.233-7.578-9.969-8.468-1.132-0.27-2.345-0.406-3.604-0.406-13.3 0-33.283 15.702-54.438 32.325-4.064 3.192-8.265 6.494-12.28 9.565-2.79 2.134-5.744 4.642-8.872 7.297-6.48 5.501-13.825 11.736-19.579 14.259-1.194 0.523-4.509 1.423-8.346 2.463-19.267 5.225-59.355 16.098-87.954 43.943-1.063 1.034-1.981 1.948-2.798 2.76-5.344 5.313-5.344 5.313-14.681 7.397-10.48 2.339-18.693 5.06-25.463 8.004-18.274-29.732-27.917-63.862-27.917-98.994 0.008-104.39 84.951-189.33 189.35-189.33s189.34 84.938 189.34 189.34c0 86.81-59.9 162.92-143.45 183.73z"/>
</svg>
