<svg xmlns="http://www.w3.org/2000/svg" viewBox="0 0 209.684 209.684">
  <path d="M44.736 166.098L65.5 202.063l71.664-41.375-20.766-35.966-4.464 2.577-23.868-61.503L0 7.62 6.35 112.98l41.33 51.42-2.944 1.7zm71.937-10.9L70.99 181.574l-5.764-9.985 45.682-26.375 5.765 9.986zm-95.638-47.893L16.78 36.682 75.81 75.68l22.977 59.21-28.896 16.682-9.07 5.237-39.79-49.505zm43.82-23.724c-3.24-5.61-9.278-9.094-15.76-9.094-3.18 0-6.32.843-9.08 2.438-4.21 2.43-7.22 6.35-8.477 11.042s-.612 9.593 1.817 13.802c3.24 5.61 9.278 9.094 15.76 9.094 3.178 0 6.32-.843 9.082-2.44 8.683-5.013 11.67-16.157 6.657-24.84zm117.33 45.738h27.5v15h-27.5v27.5h-15v-27.5h-27.5v-15h27.5v-27.5h15v27.5z"/>
</svg>
