<svg xmlns="http://www.w3.org/2000/svg" viewBox="0 0 51.997 51.997" width="512" height="512"><path d="M51.91 16.242c-.758-8.354-6.67-14.415-14.07-14.415-4.93 0-9.445 2.653-11.985 6.905-2.517-4.307-6.846-6.906-11.697-6.906-7.4 0-13.313 6.06-14.07 14.415-.06.37-.307 2.312.44 5.48 1.08 4.567 3.57 8.722 7.2 12.012l18.115 16.44L44.27 33.73c3.63-3.29 6.12-7.444 7.198-12.013.748-3.167.502-5.11.443-5.478zm-2.39 5.02c-.983 4.17-3.264 7.972-6.59 10.984L25.856 47.48 9.072 32.25c-3.33-3.018-5.61-6.818-6.596-10.99-.708-2.997-.417-4.69-.416-4.7l.015-.102c.65-7.32 5.73-12.632 12.083-12.632 4.687 0 8.813 2.88 10.77 7.515l.922 2.184.92-2.183c1.928-4.563 6.272-7.513 11.07-7.513 6.35 0 11.433 5.313 12.096 12.727.002.016.293 1.71-.415 4.707z" fill="#fe427c"/></svg>