<svg xmlns="http://www.w3.org/2000/svg" viewBox="0 0 60.015 60.015" width="512" height="512">
  <g fill="#fe427c">
    <path d="M42.007 0h-24c-9.925 0-18 8.075-18 18v14c0 9.59 7.538 17.452 17 17.973v8.344c0 .688.41 1.304 1.047 1.568.21.087.433.13.652.13.44 0 .873-.173 1.198-.498l1.876-1.876C26.708 52.714 33.26 50 40.227 50h1.78c9.926 0 18-8.075 18-18V18c0-9.925-8.075-18-18-18zm16 32c0 8.822-7.178 16-16 16h-1.78c-7.503 0-14.556 2.92-19.86 8.226l-1.36 1.36V44c0-.552-.448-1-1-1s-1 .448-1 1v3.95c-8.356-.52-15-7.466-15-15.95V18c0-8.822 7.178-16 16-16h24c8.822 0 16 7.178 16 16v14z"/>
    <path d="M17.007 19.015h14c.552 0 1-.448 1-1s-.448-1-1-1h-14c-.552 0-1 .448-1 1s.448 1 1 1zM44.007 25.015h-27c-.552 0-1 .448-1 1s.448 1 1 1h27c.552 0 1-.448 1-1s-.447-1-1-1zM44.007 33.015h-27c-.552 0-1 .448-1 1s.448 1 1 1h27c.552 0 1-.448 1-1s-.447-1-1-1z"/>
  </g>
</svg>
