<svg xmlns="http://www.w3.org/2000/svg" viewBox="0 0 60.015 60.015" width="20" height="20">
  <path d="M42.008 0h-24c-9.925 0-18 8.075-18 18v14c0 9.59 7.538 17.452 17 17.973v8.344c0 .937.764 1.7 1.703 1.7.45 0 .874-.178 1.196-.5l1.876-1.876C26.708 52.714 33.26 50 40.227 50h1.78c9.926 0 18-8.075 18-18V18c0-9.925-8.075-18-18-18zm-25 17.015h14c.552 0 1 .448 1 1s-.448 1-1 1h-14c-.552 0-1-.448-1-1s.447-1 1-1zm27 18h-27c-.552 0-1-.448-1-1s.448-1 1-1h27c.552 0 1 .448 1 1s-.448 1-1 1zm0-8h-27c-.552 0-1-.448-1-1s.448-1 1-1h27c.552 0 1 .448 1 1s-.448 1-1 1z" fill="#FFF"/>
</svg>
