<svg xmlns="http://www.w3.org/2000/svg" viewBox="0 0 58 58" width="512" height="512">
  <g fill="#FFF">
    <path d="M57 6H1c-.552 0-1 .447-1 1v44c0 .553.448 1 1 1h56c.552 0 1-.447 1-1V7c0-.553-.448-1-1-1zm-1 44H2V8h54v42z"/>
    <path d="M16 28.138c3.07 0 5.57-2.498 5.57-5.568 0-3.072-2.5-5.57-5.57-5.57s-5.57 2.498-5.57 5.57c0 3.07 2.5 5.568 5.57 5.568zM16 19c1.968 0 3.57 1.602 3.57 3.57s-1.602 3.568-3.57 3.568-3.57-1.6-3.57-3.568S14.033 19 16 19zM7 46c.234 0 .47-.082.66-.25l16.313-14.36 10.302 10.3c.39.39 1.023.39 1.414 0s.39-1.023 0-1.414L30.88 35.47l9.18-10.055 11.262 10.323c.407.373 1.04.345 1.413-.062s.346-1.04-.062-1.413l-12-11c-.196-.18-.457-.268-.72-.262-.265.013-.515.13-.694.326l-9.793 10.727-4.743-4.743c-.374-.373-.972-.392-1.368-.044L6.34 44.25c-.416.364-.456.996-.09 1.41.197.226.473.34.75.34z"/>
  </g>
</svg>
