<svg xmlns="http://www.w3.org/2000/svg" width="25px" height="25px" viewBox="0 0 611.997 611.998"><path d="M511.114 300.25c-9.94 0-17.638 7.664-17.638 17.652v241.105H368.4v-98.453c0-9.236-7.696-17.31-17-17.31h-90.436c-9.948 0-17.96 8.073-17.96 17.31v98.453h-124.76v-233.1c0-9.306-7.69-17.036-17.638-17.036-9.298 0-16.995 7.73-16.995 17.037V576.66c0 9.304 7.698 17.035 16.996 17.035h160.358c9.298 0 16.995-7.73 16.995-17.036v-98.455h55.8v98.454c0 9.304 7.697 17.035 17.64 17.035h159.714c9.3 0 16.995-7.73 16.995-17.036V317.902c0-9.988-7.697-17.652-16.996-17.652z"/><path d="M607.003 314.003L467.82 174.225V78.92c0-9.922-8.02-17.584-17.96-17.584-9.306 0-17.002 7.663-17.002 17.583v60.344L318.046 23.774c-3.518-3.558-7.697-5.474-11.864-5.474-4.81 0-8.983 1.984-12.507 5.474L5.36 312.087c-6.916 6.91-7.374 17.994 0 24.357 6.412 7.39 17.455 6.91 24.372 0L306.182 60.65 581.99 339.045c2.872 2.874 7.053 4.516 12.506 4.516 4.81 0 8.976-1.642 12.507-4.516 6.417-6.43 6.896-18.062 0-25.04z"/></svg>
