<svg xmlns="http://www.w3.org/2000/svg" viewBox="0 0 194.666 194.666"><path d="M64.213 177.752c-.727 0-1.123-.017-1.15-.02-.542.01-1.083.014-1.62.014C24.938 177.746.556 159.24.31 159.05c-.272-.212-.38-.576-.264-.9.116-.328.454-.524.774-.533 22.35.563 36.568-3.957 44.543-7.857 6.112-2.99 9.597-6.073 11.117-7.63-16.154-2.843-25.243-10.203-30.055-15.963-5.396-6.46-6.71-12.234-6.764-12.477-.05-.237.007-.484.16-.673.15-.19.38-.3.622-.3H34.39c-15.188-6.092-21.935-15.724-24.93-23.03-3.545-8.65-2.755-15.81-2.72-16.11.033-.28.212-.523.47-.638.26-.115.56-.086.79.08 5.352 3.818 11.593 4.122 14.745 3.98-27.012-20.46-11.038-52.753-10.87-53.083.12-.238.352-.4.617-.432.268-.032.53.07.703.273 39.276 45.915 75.08 42.257 80.458 41.397-1.188-11.787-.312-27.774 10.12-38.555 6.41-6.626 13.31-8.096 13.602-8.155 27.652-5.936 45.22 7.13 48.013 9.403l23.13-9.36c.268-.11.574-.064.8.117.226.18.336.47.288.756-1.296 7.764-9.71 15.653-14.044 19.264l18.16-3.346c.347-.065.704.113.86.435.16.322.084.71-.184.95L173.36 55.484c.514 8.233 1.522 26.76-6.82 46.556-17.21 40.84-44.41 59.245-64.195 67.495-18.326 7.64-33.875 8.217-38.132 8.217zm-1.122-1.617c.226.01 17.574.724 38.708-8.105 19.487-8.142 46.282-26.307 63.267-66.61 8.33-19.767 7.17-38.306 6.674-46.222-.016-.244.082-.482.265-.646L191.21 37.37l-18.527 3.414c-.36.064-.73-.127-.88-.47-.147-.344-.038-.743.264-.963.136-.1 12.97-9.57 15.63-18.803l-22.153 8.966c-.285.117-.61.057-.836-.147-.044-.04-4.452-3.97-12.418-7.066-7.342-2.855-19.3-5.57-34.585-2.286-.274.057-26.733 6-22.382 45.71.045.402-.22.774-.614.866-.403.095-10.05 2.245-25.154-1.83-13.703-3.694-34.605-13.47-56.76-39.014-1.125 2.583-3.76 9.435-4.18 17.714-.712 14.02 4.933 25.283 16.776 33.48.267.185.396.513.326.83-.07.316-.323.56-.643.616-.383.065-9.06 1.525-16.833-3.286-.19 5.75 1.083 28.017 30.97 37.656.375.12.606.497.545.886-.06.39-.396.676-.79.676h-17.46c1.427 4.372 8.88 22.157 36.663 26.47.277.043.512.228.618.488.105.26.067.557-.102.78-.542.726-13.393 17.21-53.95 17.21-.44 0-.88 0-1.322-.005 6.74 4.444 29.032 17.345 59.677 16.875z"/></svg>